<?xml version="1.0" encoding="UTF-8"?>
<svg version="1.1" xmlns="http://www.w3.org/2000/svg" width="500" height="500">
<path d="M0 0 C5.1230216 1.32322943 7.44273088 3.85527361 11.01171875 7.62158203 C11.67091812 8.29164276 12.33011749 8.96170349 13.0092926 9.65206909 C15.10938303 11.79221997 17.18790313 13.95191668 19.265625 16.11376953 C21.34388773 18.24980879 23.42643439 20.3815528 25.51124573 22.51119995 C26.80387893 23.83446717 28.09208148 25.16208358 29.37486267 26.49490356 C33.10645813 30.34793022 36.98350303 33.92795881 41.04740906 37.427948 C43.12884971 39.2523588 45.04675939 41.18334504 46.93359375 43.20751953 C47.60712891 43.91134766 48.28066406 44.61517578 48.97460938 45.34033203 C50.35647915 46.79493179 51.72864367 48.25880287 53.09179688 49.73095703 C53.76146484 50.42447266 54.43113281 51.11798828 55.12109375 51.83251953 C55.7143042 52.46351563 56.30751465 53.09451172 56.91870117 53.74462891 C58.79789995 55.23055326 58.79789995 55.23055326 61.328125 54.89550781 C64.14434846 53.87407676 65.47439181 52.79285116 67.53515625 50.63720703 C68.20482422 49.95013672 68.87449219 49.26306641 69.56445312 48.55517578 C70.24958984 47.83201172 70.93472656 47.10884766 71.640625 46.36376953 C72.99870215 44.95240897 74.35937392 43.54354038 75.72265625 42.13720703 C76.61754761 41.19627197 76.61754761 41.19627197 77.53051758 40.23632812 C79.5137712 38.29627576 81.54076175 36.49000214 83.64111328 34.68017578 C87.61333912 31.23167945 91.28268521 27.56828043 94.92578125 23.77783203 C96.23427234 22.43725221 97.54353987 21.09742987 98.85351562 19.75830078 C100.88397782 17.67829107 102.90937138 15.59423689 104.92211914 13.49707031 C106.88871387 11.45169756 108.87395845 9.4260742 110.86328125 7.40283203 C111.4582692 6.77373932 112.05325714 6.14464661 112.66627502 5.49649048 C115.69170113 2.45167249 117.36120789 1.11236169 121.61523438 -0.01367188 C124.828125 -0.01123047 124.828125 -0.01123047 127.19921875 1.61376953 C128.22208984 2.78939453 128.22208984 2.78939453 129.265625 3.98876953 C131.79019916 6.82472381 134.31209468 9.44623373 137.20703125 11.89501953 C144.63881518 18.30002674 151.37780369 25.48627419 158.27392578 32.45507812 C166.32191356 40.71482739 166.32191356 40.71482739 174.828125 48.48876953 C182.08531134 54.64143234 188.58737901 61.69805834 195.27392578 68.45507812 C204.46701628 77.79543183 204.46701628 77.79543183 214.17773438 86.58740234 C216.82518582 88.83538626 219.32720888 91.20316427 221.828125 93.61376953 C222.776875 94.51353516 223.725625 95.41330078 224.703125 96.34033203 C226.828125 98.98876953 226.828125 98.98876953 227.265625 101.69970703 C226.828125 103.98876953 226.828125 103.98876953 224.828125 105.98876953 C220.85441389 106.61068816 216.8444196 106.59154724 212.828125 106.67626953 C211.72855469 106.74265625 210.62898438 106.80904297 209.49609375 106.87744141 C203.38535015 106.9897979 199.55211831 106.43788685 194.8984375 102.32861328 C193.1839984 100.5720925 191.49639112 98.78920138 189.828125 96.98876953 C188.7433221 95.89933377 187.65282097 94.81555154 186.55761719 93.73657227 C182.9104137 90.1407669 179.3046374 86.505267 175.703125 82.86376953 C167.02740096 73.92250289 167.02740096 73.92250289 157.84375 65.52001953 C154.04742392 62.30045269 150.60594275 58.77471058 147.1328125 55.21533203 C146.23119888 54.29480545 146.23119888 54.29480545 145.31137085 53.35568237 C142.80161001 50.79166719 140.29343581 48.22654524 137.80419922 45.64257812 C135.96683067 43.73862102 134.11394289 41.85097925 132.2578125 39.96533203 C131.70141083 39.37998688 131.14500916 38.79464172 130.57174683 38.19155884 C128.04302998 35.64577893 126.17107135 34.12556087 122.80078125 32.78125 C118.53269405 33.07920287 116.60727245 35.34891791 113.8359375 38.33251953 C113.28630341 38.89442993 112.73666931 39.45634033 112.17037964 40.03527832 C110.41408076 41.83732274 108.68334477 43.66170371 106.953125 45.48876953 C105.22926527 47.2778355 103.50041674 49.06195544 101.77056885 50.8452301 C100.65331683 51.9974051 99.53817816 53.15163341 98.42523193 54.30796814 C94.92875309 57.92418896 91.33969102 61.34007474 87.45849609 64.54760742 C84.58758497 67.08534153 82.24730397 70.0252753 79.828125 72.98876953 C81.98548966 76.94989035 84.45267119 79.79253374 87.71484375 82.89501953 C88.65263672 83.80380859 89.59042969 84.71259766 90.55664062 85.64892578 C92.03968138 87.07605386 93.52630261 88.49888078 95.02075195 89.9140625 C96.47137264 91.29214026 97.90586325 92.68713478 99.33984375 94.08251953 C100.20053467 94.90429688 101.06122559 95.72607422 101.94799805 96.57275391 C103.828125 98.98876953 103.828125 98.98876953 104.23364258 101.67041016 C103.828125 103.98876953 103.828125 103.98876953 101.828125 105.98876953 C93.59394016 107.59714534 82.01141141 108.70850484 74.40771484 104.71875 C70.40774611 101.60661376 67.38932462 97.83810107 64.34130859 93.82226562 C62.8032381 91.95861454 61.21004631 90.48532043 59.36328125 88.93017578 C55.36320373 85.54936706 51.67395167 81.91884721 47.984375 78.20751953 C47.36651627 77.58639786 46.74865753 76.96527618 46.11207581 76.32533264 C43.53246191 73.727371 40.95752136 71.12479942 38.38232422 68.52246094 C29.25867217 59.27002266 29.25867217 59.27002266 19.61279297 50.57275391 C17.53932933 48.73244856 15.63680661 46.77527717 13.72265625 44.77001953 C12.71235352 43.71427734 12.71235352 43.71427734 11.68164062 42.63720703 C10.29977085 41.18260727 8.92760633 39.71873619 7.56445312 38.24658203 C6.89478516 37.55306641 6.22511719 36.85955078 5.53515625 36.14501953 C4.9419458 35.51402344 4.34873535 34.88302734 3.73754883 34.23291016 C1.87409108 32.76983533 1.87409108 32.76983533 -0.56274414 32.99755859 C-3.99090469 34.29991958 -5.96590766 36.16525093 -8.625 38.69189453 C-9.14024231 39.1782135 -9.65548462 39.66453247 -10.18634033 40.16558838 C-16.55993494 46.22474436 -22.74048221 52.48487786 -28.921875 58.73876953 C-41.82351637 71.78989199 -41.82351637 71.78989199 -48.01757812 77.05712891 C-53.42640082 81.9069255 -58.44125217 87.19908965 -63.546875 92.36376953 C-65.88515415 94.72861284 -68.22671869 97.09013195 -70.5703125 99.44970703 C-71.10361176 99.99130463 -71.63691101 100.53290222 -72.18637085 101.09091187 C-78.07215939 107.0160117 -82.58422697 106.20302302 -90.671875 106.23876953 C-91.83847656 106.25939453 -93.00507812 106.28001953 -94.20703125 106.30126953 C-95.31949219 106.30642578 -96.43195313 106.31158203 -97.578125 106.31689453 C-98.60228516 106.32624023 -99.62644531 106.33558594 -100.68164062 106.34521484 C-101.50341797 106.22758789 -102.32519531 106.10996094 -103.171875 105.98876953 C-105.171875 102.98876953 -105.171875 102.98876953 -105.11328125 100.63720703 C-103.83974299 97.05438986 -101.84455851 95.23984669 -99.109375 92.61376953 C-98.19027344 91.71916016 -97.27117187 90.82455078 -96.32421875 89.90283203 C-94.18327526 87.88918788 -91.97988471 85.97494648 -89.73828125 84.07470703 C-82.86169511 78.09698369 -76.57806507 71.46004427 -70.171875 64.98876953 C-55.3811116 50.04773713 -55.3811116 50.04773713 -49.33203125 44.92626953 C-43.5287769 39.72118064 -38.15339152 34.02805862 -32.671875 28.48876953 C-17.91897229 13.58037827 -17.91897229 13.58037827 -11.66650391 8.29150391 C-9.21411797 6.15397837 -7.17781547 3.67385103 -5.10546875 1.17626953 C-3.171875 -0.01123047 -3.171875 -0.01123047 0 0 Z " fill="#0C81CF" transform="translate(156.171875,218.01123046875)"/>
<path d="M0 0 C-1.51314919 11.75734314 -8.70966612 22.56048636 -17.5703125 30.22265625 C-31.42331196 40.78014159 -44.87728877 43.81808509 -62 43 C-64.0056844 42.70277754 -66.00867847 42.38177177 -68 42 C-67.72851562 40.12548828 -67.72851562 40.12548828 -67 38 C-65.41210938 36.87841797 -65.41210938 36.87841797 -63.34375 35.9921875 C-62.57619385 35.65010254 -61.8086377 35.30801758 -61.01782227 34.95556641 C-60.18694092 34.59897949 -59.35605957 34.24239258 -58.5 33.875 C-51.6340869 30.78589423 -45.03358222 27.47717373 -38.5625 23.625 C-37.85996094 23.20847168 -37.15742188 22.79194336 -36.43359375 22.36279297 C-33.15745419 20.39148841 -30.0014889 18.37969709 -27 16 C-40.31881964 17.90268852 -52.60028901 23.85389996 -64.1784668 30.51025391 C-67.50907833 32.38939452 -69.05547048 33 -73 33 C-68.76314326 18.9253686 -59.52681333 10.03385476 -47.22265625 2.73046875 C-32.84398339 -4.99044286 -15.28545671 -4.9478935 0 0 Z " fill="#8DC34D" transform="translate(457,276)"/>
<path d="M0 0 C9.29776474 6.84456443 15.68550431 15.62239253 20.6796875 25.97265625 C18.11357812 27.00629951 16.34251363 27.23227012 13.74365234 26.21435547 C11.41768084 24.99976966 9.14121126 23.7194288 6.8671875 22.41015625 C0.66316057 18.98801043 -5.48096396 15.86681831 -12.1328125 13.41015625 C-12.77130127 13.17159912 -13.40979004 12.93304199 -14.06762695 12.68725586 C-17.78760128 11.35717322 -21.40871878 10.50578311 -25.3203125 9.97265625 C-12.81500447 19.46160858 1.31879999 26.73099843 15.6796875 32.97265625 C15.6796875 33.96265625 15.6796875 34.95265625 15.6796875 35.97265625 C-0.43881587 39.10540612 -16.53991644 37.22693982 -30.3203125 27.97265625 C-40.55392402 20.13989201 -48.07853952 10.20929167 -52.3203125 -2.02734375 C-52.3203125 -3.34734375 -52.3203125 -4.66734375 -52.3203125 -6.02734375 C-33.83007009 -10.27100594 -16.54421801 -10.55870824 0 0 Z " fill="#8EC34E" transform="translate(109.3203125,198.02734375)"/>
<path d="M0 0 C6.25785131 1.51705486 10.08300463 6.86257515 13.30078125 12.12890625 C18.24717767 21.60800047 17.92986285 30.95744928 14.94921875 41.06640625 C14.63597656 41.70449219 14.32273438 42.34257812 14 43 C12.515 43.495 12.515 43.495 11 44 C10.78065796 43.11477661 10.78065796 43.11477661 10.55688477 42.21166992 C9.89332533 39.53663838 9.22793347 36.86206595 8.5625 34.1875 C8.33240234 33.25873047 8.10230469 32.32996094 7.86523438 31.37304688 C7.64287109 30.48037109 7.42050781 29.58769531 7.19140625 28.66796875 C6.98717041 27.84578857 6.78293457 27.0236084 6.57250977 26.17651367 C6.11375842 24.43247603 5.57027363 22.71082088 5 21 C5.49122453 29.13105861 6.35266241 37.01920915 8 45 C4.17827407 44.46243855 2.7683928 43.00356656 0.4375 40 C-5.2465431 32.26677398 -7.19041264 24.56170151 -6 15 C-4.62894574 9.62520982 -3.08781822 4.63172733 0 0 Z " fill="#97C75D" transform="translate(128,173)"/>
<path d="M0 0 C0.81917642 1.72601379 1.63006016 3.4559647 2.4375 5.1875 C3.11619141 6.63189453 3.11619141 6.63189453 3.80859375 8.10546875 C7.01349574 15.89180441 6.68091545 23.56612001 4.1171875 31.46484375 C1.58814777 37.20381852 -2.11147523 42.51517197 -8 45 C-7.37812291 39.50675239 -6.49122678 34.13150851 -5.40234375 28.7109375 C-4.96625277 25.77261575 -4.93475957 22.96626495 -5 20 C-7.35862583 27.94605012 -9.56933303 35.8301386 -11 44 C-14 43 -14 43 -14.94921875 41.42578125 C-18.20494861 32.10646984 -18.67952294 22.61366126 -14.4375 13.5625 C-11.58530226 8.49493726 -6.63941401 0 0 0 Z " fill="#8CC24C" transform="translate(386,257)"/>
<path d="M0 0 C1.48306641 0.02126953 1.48306641 0.02126953 2.99609375 0.04296875 C3.98738281 0.04941406 4.97867188 0.05585938 6 0.0625 C8.43359375 0.23046875 8.43359375 0.23046875 9.43359375 1.23046875 C9.50603428 3.25011074 9.51736563 5.27213999 9.49609375 7.29296875 C9.48707031 8.39769531 9.47804687 9.50242187 9.46875 10.640625 C9.45714844 11.49527344 9.44554687 12.34992188 9.43359375 13.23046875 C6.90883913 14.49284606 5.12158909 14.32903279 2.30859375 14.29296875 C1.39851562 14.28394531 0.4884375 14.27492188 -0.44921875 14.265625 C-1.14789063 14.25402344 -1.8465625 14.24242187 -2.56640625 14.23046875 C-4.14818551 10.07829818 -4.97119083 6.6830991 -4.56640625 2.23046875 C-2.56640625 0.23046875 -2.56640625 0.23046875 0 0 Z " fill="#3190D1" transform="translate(161.56640625,290.76953125)"/>
<path d="M0 0 C3.66136042 3.66136042 3.91181457 8.90650068 4.3125 13.875 C3.9898204 23.0355152 0.47587924 30.53804739 -6 37 C-8.22265625 38.25 -8.22265625 38.25 -10 39 C-9.48047759 34.41088538 -8.81236283 29.91063636 -7.9375 25.375 C-7.21388428 21.52107629 -6.78718861 17.93701071 -7 14 C-7.33 14 -7.66 14 -8 14 C-8 12.35 -8 10.7 -8 9 C-6.68 9.33 -5.36 9.66 -4 10 C-4.03480469 11.24716797 -4.03480469 11.24716797 -4.0703125 12.51953125 C-4.08835937 13.60621094 -4.10640625 14.69289063 -4.125 15.8125 C-4.14820313 16.89144531 -4.17140625 17.97039062 -4.1953125 19.08203125 C-4.23023717 22.19402868 -4.23023717 22.19402868 -2 25 C-1.01 24.67 -0.02 24.34 1 24 C0.67 16.08 0.34 8.16 0 0 Z " fill="#99C75F" transform="translate(388,263)"/>
<path d="M0 0 C1.51400391 0.01740234 1.51400391 0.01740234 3.05859375 0.03515625 C4.07050781 0.04417969 5.08242188 0.05320312 6.125 0.0625 C7.29869141 0.07990234 7.29869141 0.07990234 8.49609375 0.09765625 C10.37201445 3.23856562 10.67866647 5.17649367 10.18359375 8.78515625 C10.08433594 9.57277344 9.98507812 10.36039062 9.8828125 11.171875 C9.49609375 13.09765625 9.49609375 13.09765625 8.49609375 14.09765625 C6.85268508 14.1962028 5.20494765 14.22738036 3.55859375 14.22265625 C2.66269531 14.22523438 1.76679688 14.2278125 0.84375 14.23046875 C-1.50390625 14.09765625 -1.50390625 14.09765625 -3.50390625 13.09765625 C-3.53077178 11.11856227 -3.55024 9.13936654 -3.56640625 7.16015625 C-3.57800781 6.05800781 -3.58960938 4.95585937 -3.6015625 3.8203125 C-3.46938887 0.13531158 -3.46938887 0.13531158 0 0 Z " fill="#077ECE" transform="translate(267.50390625,290.90234375)"/>
<path d="M0 0 C1.50046875 0.00386719 1.50046875 0.00386719 3.03125 0.0078125 C4.0315625 0.00523437 5.031875 0.00265625 6.0625 0 C8.53125 0.1328125 8.53125 0.1328125 9.53125 1.1328125 C9.62998816 3.13080822 9.66096799 5.13238408 9.65625 7.1328125 C9.65882813 8.2259375 9.66140625 9.3190625 9.6640625 10.4453125 C9.53125 13.1328125 9.53125 13.1328125 8.53125 14.1328125 C6.88784133 14.23135905 5.2401039 14.26253661 3.59375 14.2578125 C2.69785156 14.26039063 1.80195313 14.26296875 0.87890625 14.265625 C-1.46875 14.1328125 -1.46875 14.1328125 -3.46875 13.1328125 C-3.49561553 11.15371852 -3.51508375 9.17452279 -3.53125 7.1953125 C-3.54285156 6.09316406 -3.55445313 4.99101562 -3.56640625 3.85546875 C-3.43474599 0.18478064 -3.43474599 0.18478064 0 0 Z " fill="#057FD0" transform="translate(284.46875,290.8671875)"/>
<path d="M0 0 C1.50046875 0.00386719 1.50046875 0.00386719 3.03125 0.0078125 C4.0315625 0.00523437 5.031875 0.00265625 6.0625 0 C8.53125 0.1328125 8.53125 0.1328125 9.53125 1.1328125 C9.60369053 3.15245449 9.61502188 5.17448374 9.59375 7.1953125 C9.58472656 8.30003906 9.57570312 9.40476562 9.56640625 10.54296875 C9.55480469 11.39761719 9.54320312 12.25226563 9.53125 13.1328125 C7.02985398 14.38351051 5.25732309 14.26583717 2.46875 14.2578125 C1.12103516 14.26167969 1.12103516 14.26167969 -0.25390625 14.265625 C-2.46875 14.1328125 -2.46875 14.1328125 -3.46875 13.1328125 C-3.56748816 11.13481678 -3.59846799 9.13324092 -3.59375 7.1328125 C-3.59632813 6.0396875 -3.59890625 4.9465625 -3.6015625 3.8203125 C-3.42186534 0.18408769 -3.42186534 0.18408769 0 0 Z " fill="#0C7DC9" transform="translate(144.46875,290.8671875)"/>
<path d="M0 0 C9.27734375 -0.09765625 9.27734375 -0.09765625 12 0 C13 1 13 1 13.09765625 3.72265625 C13.04882812 8.36132812 13.04882812 8.36132812 13 13 C8.71 13 4.42 13 0 13 C0 8.71 0 4.42 0 0 Z " fill="#077ECE" transform="translate(158,275)"/>
<path d="M0 0 C5.08515942 4.46877646 8.88789969 9.99809225 12 16 C11.67 16.66 11.34 17.32 11 18 C7.30090527 17.39458825 4.28645598 16.34742345 0.91796875 14.71484375 C-0.01337891 14.26689453 -0.94472656 13.81894531 -1.90429688 13.35742188 C-2.86400391 12.88884766 -3.82371094 12.42027344 -4.8125 11.9375 C-5.79154297 11.46505859 -6.77058594 10.99261719 -7.77929688 10.50585938 C-10.18870167 9.34229316 -12.59544007 8.17353704 -15 7 C-15 6.67 -15 6.34 -15 6 C-11.05272412 5.82057837 -8.4019487 5.90649311 -5 8 C-4.67 6.35 -4.34 4.7 -4 3 C-3.01 3 -2.02 3 -1 3 C-0.67 2.01 -0.34 1.02 0 0 Z " fill="#90C351" transform="translate(118,207)"/>
<path d="M0 0 C3.09244792 0.03255208 6.18489583 0.06510417 9.27734375 0.09765625 C9.27734375 4.38765625 9.27734375 8.67765625 9.27734375 13.09765625 C0 13.1953125 0 13.1953125 -2.72265625 13.09765625 C-3.72265625 12.09765625 -3.72265625 12.09765625 -3.85546875 9.62890625 C-3.85289062 8.62859375 -3.8503125 7.62828125 -3.84765625 6.59765625 C-3.85023438 5.59734375 -3.8528125 4.59703125 -3.85546875 3.56640625 C-3.66839177 0.08897525 -3.50637665 0.12576674 0 0 Z " fill="#067FCF" transform="translate(284.72265625,274.90234375)"/>
<path d="M0 0 C3.09244792 0.03255208 6.18489583 0.06510417 9.27734375 0.09765625 C9.27734375 4.38765625 9.27734375 8.67765625 9.27734375 13.09765625 C0 13.1953125 0 13.1953125 -2.72265625 13.09765625 C-3.72265625 12.09765625 -3.72265625 12.09765625 -3.85546875 9.62890625 C-3.85289062 8.62859375 -3.8503125 7.62828125 -3.84765625 6.59765625 C-3.85023438 5.59734375 -3.8528125 4.59703125 -3.85546875 3.56640625 C-3.66839177 0.08897525 -3.50637665 0.12576674 0 0 Z " fill="#298ACC" transform="translate(267.72265625,274.90234375)"/>
<path d="M0 0 C9.27734375 -0.09765625 9.27734375 -0.09765625 12 0 C13 1 13 1 13.1328125 3.46875 C13.13023437 4.4690625 13.12765625 5.469375 13.125 6.5 C13.12757813 7.5003125 13.13015625 8.500625 13.1328125 9.53125 C13 12 13 12 12 13 C7.99779347 13.14355117 4.00558317 13.04216403 0 13 C0 8.71 0 4.42 0 0 Z " fill="#087ECC" transform="translate(141,275)"/>
<path d="M0 0 C0.33 0 0.66 0 1 0 C1.04898438 0.67804688 1.09796875 1.35609375 1.1484375 2.0546875 C1.60609517 7.75173643 2.33904222 13.23210676 3.59765625 18.80859375 C4 21 4 21 4 25 C2.125 24.8125 2.125 24.8125 0 24 C-1.125 21.625 -1.125 21.625 -2 19 C-2.66 18.01 -3.32 17.02 -4 16 C-5.11404521 11.98943724 -5.08124784 8.14363981 -5 4 C-4.0409375 3.8453125 -4.0409375 3.8453125 -3.0625 3.6875 C-2.381875 3.460625 -1.70125 3.23375 -1 3 C-0.67 2.01 -0.34 1.02 0 0 Z " fill="#8BC14B" transform="translate(129,189)"/>
<path d="M0 0 C0 0.66 0 1.32 0 2 C-1.6796875 3.18359375 -1.6796875 3.18359375 -3.875 4.4375 C-6.91130355 6.17330794 -7.99102668 6.98654002 -10 10 C-10 9.34 -10 8.68 -10 8 C-12.31 8.33 -14.62 8.66 -17 9 C-17 9.66 -17 10.32 -17 11 C-9.08 11 -1.16 11 7 11 C7 11.33 7 11.66 7 12 C2.44928468 12.88486131 -1.86679674 13.13441708 -6.5 13.125 C-8.40265625 13.12886719 -8.40265625 13.12886719 -10.34375 13.1328125 C-13.66105518 13.0123121 -16.74630764 12.6326624 -20 12 C-19.73413086 10.13378906 -19.73413086 10.13378906 -19 8 C-17.35766602 6.81152344 -17.35766602 6.81152344 -15.25390625 5.859375 C-14.49916016 5.51132812 -13.74441406 5.16328125 -12.96679688 4.8046875 C-12.17337891 4.45664062 -11.37996094 4.10859375 -10.5625 3.75 C-9.77294922 3.38648438 -8.98339844 3.02296875 -8.16992188 2.6484375 C-2.33041588 0 -2.33041588 0 0 0 Z " fill="#B8D893" transform="translate(409,306)"/>
<path d="M0 0 C0.66 0 1.32 0 2 0 C5.02190397 8.6879739 4.53411062 16.29965658 1.94921875 25.06640625 C1.63597656 25.70449219 1.32273438 26.34257812 1 27 C0.01 27.33 -0.98 27.66 -2 28 C-2.50404808 25.89679937 -3.00310508 23.79240209 -3.5 21.6875 C-3.91765625 19.92986328 -3.91765625 19.92986328 -4.34375 18.13671875 C-5 15 -5 15 -5 12 C-4.34 12 -3.68 12 -3 12 C-2.01 14.64 -1.02 17.28 0 20 C1.72752264 18.27247736 1.13219564 16.07539022 1.13671875 13.77539062 C1.13285156 13.08638672 1.12898437 12.39738281 1.125 11.6875 C1.13080078 10.67139648 1.13080078 10.67139648 1.13671875 9.63476562 C1.13016123 6.2805945 1.03843151 3.20595124 0 0 Z " fill="#A9CC7F" transform="translate(141,189)"/>
<path d="M0 0 C2 2 2 2 2 6 C0.390625 7.59765625 0.390625 7.59765625 -1.75 9.0625 C-2.79414063 9.79146484 -2.79414063 9.79146484 -3.859375 10.53515625 C-4.56578125 11.01855469 -5.2721875 11.50195312 -6 12 C-6.70125 12.54140625 -7.4025 13.0828125 -8.125 13.640625 C-10.10177815 15.07378916 -11.61600754 15.57428706 -14 16 C-13.67 14.68 -13.34 13.36 -13 12 C-11.35 11.67 -9.7 11.34 -8 11 C-7.79375 9.741875 -7.5875 8.48375 -7.375 7.1875 C-6.49193978 3.51890422 -6.27006117 3.17283915 -2.875 1 C-1.92625 0.67 -0.9775 0.34 0 0 Z " fill="#067FD1" transform="translate(236,260)"/>
<path d="M0 0 C0.66 0.66 1.32 1.32 2 2 C1.01 2.33 0.02 2.66 -1 3 C-0.773125 4.0725 -0.54625 5.145 -0.3125 6.25 C0 10 0 10 -1.0625 12.4375 C-3.73894952 14.59592703 -5.65900136 14.29697766 -9 14 C-9.33 12.02 -9.66 10.04 -10 8 C-8.9171875 7.4121875 -8.9171875 7.4121875 -7.8125 6.8125 C-4.772674 4.85350102 -2.47872273 2.62036403 0 0 Z " fill="#077ECF" transform="translate(63,309)"/>
<path d="M0 0 C1.51400391 0.01740234 1.51400391 0.01740234 3.05859375 0.03515625 C4.07050781 0.04417969 5.08242188 0.05320312 6.125 0.0625 C7.29869141 0.07990234 7.29869141 0.07990234 8.49609375 0.09765625 C10.37201445 3.23856562 10.67866647 5.17649367 10.18359375 8.78515625 C10.08433594 9.57277344 9.98507812 10.36039062 9.8828125 11.171875 C9.49609375 13.09765625 9.49609375 13.09765625 8.49609375 14.09765625 C6.85268508 14.1962028 5.20494765 14.22738036 3.55859375 14.22265625 C2.66269531 14.22523438 1.76679688 14.2278125 0.84375 14.23046875 C-1.50390625 14.09765625 -1.50390625 14.09765625 -3.50390625 13.09765625 C-3.53077178 11.11856227 -3.55024 9.13936654 -3.56640625 7.16015625 C-3.57800781 6.05800781 -3.58960938 4.95585937 -3.6015625 3.8203125 C-3.46938887 0.13531158 -3.46938887 0.13531158 0 0 Z M-1.50390625 2.09765625 C-1.50390625 5.39765625 -1.50390625 8.69765625 -1.50390625 12.09765625 C1.79609375 12.09765625 5.09609375 12.09765625 8.49609375 12.09765625 C8.51671875 10.63328125 8.53734375 9.16890625 8.55859375 7.66015625 C8.57019531 6.83644531 8.58179688 6.01273437 8.59375 5.1640625 C8.72876723 3.10601687 8.72876723 3.10601687 7.49609375 2.09765625 C4.49278357 1.95572288 1.50392241 2.05529247 -1.50390625 2.09765625 Z " fill="#69A8D1" transform="translate(267.50390625,290.90234375)"/>
<path d="M0 0 C0.9237463 3.11042698 1.0781003 5.82621889 1 9.0625 C0.9254869 12.15945057 1.00691998 14.02075995 2 17 C4.89932357 14.60490662 5.50168276 12.68754757 6 9 C6.66 9 7.32 9 8 9 C7.6889315 11.06271639 7.37608484 13.12516466 7.0625 15.1875 C6.80146484 16.91033203 6.80146484 16.91033203 6.53515625 18.66796875 C6.08620687 21.46325212 5.57917838 24.22933586 5 27 C2 26 2 26 1.05078125 24.42578125 C-1.60213137 16.83199434 -2.575097 7.72529101 0 0 Z " fill="#AFCF84" transform="translate(370,274)"/>
<path d="M0 0 C0.66 0.33 1.32 0.66 2 1 C0.7260411 3.03833424 -0.61061923 5.03852126 -2 7 C-2.66 7 -3.32 7 -4 7 C-4.2475 7.639375 -4.495 8.27875 -4.75 8.9375 C-6 11 -6 11 -8.125 11.75 C-9.053125 11.87375 -9.053125 11.87375 -10 12 C-9.67 13.98 -9.34 15.96 -9 18 C-1.08 18 6.84 18 15 18 C15 18.33 15 18.66 15 19 C10.87513162 19.08676908 6.75049616 19.14031295 2.625 19.1875 C1.449375 19.21263672 0.27375 19.23777344 -0.9375 19.26367188 C-2.05898438 19.27333984 -3.18046875 19.28300781 -4.3359375 19.29296875 C-5.37282715 19.3086792 -6.4097168 19.32438965 -7.47802734 19.34057617 C-8.31027832 19.22818604 -9.1425293 19.1157959 -10 19 C-12 16 -12 16 -11.97265625 13.67578125 C-10.64050102 10.01101685 -8.22286326 7.79204067 -5.4375 5.1875 C-4.91736328 4.68541016 -4.39722656 4.18332031 -3.86132812 3.66601562 C-2.5831143 2.43470873 -1.29272853 1.2160593 0 0 Z " fill="#5EA8D3" transform="translate(63,305)"/>
<path d="M0 0 C0.66 0.33 1.32 0.66 2 1 C2.33 1.99 2.66 2.98 3 4 C3.66 4.66 4.32 5.32 5 6 C4.01 6.33 3.02 6.66 2 7 C1.67 7.99 1.34 8.98 1 10 C-2.37867647 12.46552067 -3.70558202 13 -8 13 C-6.94124926 9.59687262 -5.99097846 6.98646769 -4 4 C-3.01 4 -2.02 4 -1 4 C-0.67 2.68 -0.34 1.36 0 0 Z " fill="#8BC24A" transform="translate(392,296)"/>
<path d="M0 0 C3.66136042 3.66136042 3.91181457 8.90650068 4.3125 13.875 C4.13350279 19.91317244 2.70578077 25.95306308 -1.1875 30.625 C-2.0846875 31.305625 -2.0846875 31.305625 -3 32 C-3 30.68 -3 29.36 -3 28 C-2.34 28 -1.68 28 -1 28 C-1 26.68 -1 25.36 -1 24 C-0.34 24 0.32 24 1 24 C0.67 16.08 0.34 8.16 0 0 Z " fill="#ACCF81" transform="translate(388,263)"/>
<path d="M0 0 C9.27734375 -0.09765625 9.27734375 -0.09765625 12 0 C13 1 13 1 13.1328125 3.46875 C13.13023437 4.4690625 13.12765625 5.469375 13.125 6.5 C13.12757813 7.5003125 13.13015625 8.500625 13.1328125 9.53125 C13 12 13 12 12 13 C7.99779347 13.14355117 4.00558317 13.04216403 0 13 C0 8.71 0 4.42 0 0 Z M1 2 C1 5.3 1 8.6 1 12 C3.97 12 6.94 12 10 12 C11.14352916 9.71294169 11.10334439 8.40735238 11.0625 5.875 C11.041875 4.59625 11.02125 3.3175 11 2 C7.7 2 4.4 2 1 2 Z " fill="#4D99CB" transform="translate(141,275)"/>
<path d="M0 0 C5.28389155 0.88623748 8.31558733 4.86041393 11.8125 8.625 C12.49634766 9.33591797 13.18019531 10.04683594 13.88476562 10.77929688 C15.56260938 12.52753967 17.2248154 14.28819351 18.875 16.0625 C18.215 16.7225 17.555 17.3825 16.875 18.0625 C16.545 17.4025 16.215 16.7425 15.875 16.0625 C14.885 16.0625 13.895 16.0625 12.875 16.0625 C12.545 14.4125 12.215 12.7625 11.875 11.0625 C9.4 10.5675 9.4 10.5675 6.875 10.0625 C6.545 9.0725 6.215 8.0825 5.875 7.0625 C4.18778117 4.79187829 4.18778117 4.79187829 1.875 3.0625 C-0.66707971 2.72906449 -0.66707971 2.72906449 -3.125 3.0625 C-4.115 3.0625 -5.105 3.0625 -6.125 3.0625 C-4.25228677 0.30850996 -3.38488391 0.06769768 0 0 Z " fill="#3B91C7" transform="translate(156.125,217.9375)"/>
<path d="M0 0 C9.27734375 -0.09765625 9.27734375 -0.09765625 12 0 C13 1 13 1 13.09765625 3.72265625 C13.04882812 8.36132812 13.04882812 8.36132812 13 13 C8.71 13 4.42 13 0 13 C0 8.71 0 4.42 0 0 Z M1 2 C1 5.3 1 8.6 1 12 C4.3 12 7.6 12 11 12 C11 8.7 11 5.4 11 2 C7.7 2 4.4 2 1 2 Z " fill="#529BCC" transform="translate(158,275)"/>
<path d="M0 0 C1.81242052 -0.02687279 3.62495233 -0.04633715 5.4375 -0.0625 C6.44683594 -0.07410156 7.45617187 -0.08570313 8.49609375 -0.09765625 C11 0 11 0 12 1 C12.07244053 3.01964199 12.08377188 5.04167124 12.0625 7.0625 C12.05347656 8.16722656 12.04445312 9.27195312 12.03515625 10.41015625 C12.02355469 11.26480469 12.01195312 12.11945313 12 13 C9.47524538 14.26237731 7.68799534 14.09856404 4.875 14.0625 C3.96492187 14.05347656 3.05484375 14.04445313 2.1171875 14.03515625 C1.41851562 14.02355469 0.71984375 14.01195312 0 14 C0 13.34 0 12.68 0 12 C3.3 12 6.6 12 10 12 C9.67 9.03 9.34 6.06 9 3 C5.7 2.67 2.4 2.34 -1 2 C-0.67 1.34 -0.34 0.68 0 0 Z " fill="#63A9D7" transform="translate(142,291)"/>
<path d="M0 0 C3.34373475 0.55728913 6.03312999 1.35173889 9 3 C9 3.99 9 4.98 9 6 C4.09074163 6.98029565 -0.58227573 7.15109725 -5.5625 7.125 C-6.6752832 7.13080078 -6.6752832 7.13080078 -7.81054688 7.13671875 C-11.66500306 7.12985418 -15.25431062 6.93456804 -19 6 C-19 5.67 -19 5.34 -19 5 C-11.41 5 -3.82 5 4 5 C3.67 4.34 3.34 3.68 3 3 C2.01 2.67 1.02 2.34 0 2 C0 1.34 0 0.68 0 0 Z " fill="#AFD086" transform="translate(116,228)"/>
<path d="M0 0 C-1.66463038 4.28642324 -4.79075837 7.08617217 -8 10.25 C-8.5465625 10.80429687 -9.093125 11.35859375 -9.65625 11.9296875 C-13.7466133 16 -13.7466133 16 -16 16 C-16 15.34 -16 14.68 -16 14 C-15.34 14 -14.68 14 -14 14 C-14.20625 13.38125 -14.4125 12.7625 -14.625 12.125 C-14.74875 11.42375 -14.8725 10.7225 -15 10 C-14.34 9.34 -13.68 8.68 -13 8 C-10.875 8.375 -10.875 8.375 -9 9 C-8.9175 8.2575 -8.835 7.515 -8.75 6.75 C-7.35451113 1.63320749 -5.2469888 0 0 0 Z " fill="#489BCF" transform="translate(128,274)"/>
<path d="M0 0 C1.51400391 0.01740234 1.51400391 0.01740234 3.05859375 0.03515625 C4.07050781 0.04417969 5.08242188 0.05320312 6.125 0.0625 C7.29869141 0.07990234 7.29869141 0.07990234 8.49609375 0.09765625 C8.49609375 0.42765625 8.49609375 0.75765625 8.49609375 1.09765625 C5.19609375 1.42765625 1.89609375 1.75765625 -1.50390625 2.09765625 C-1.50390625 5.39765625 -1.50390625 8.69765625 -1.50390625 12.09765625 C1.79609375 12.09765625 5.09609375 12.09765625 8.49609375 12.09765625 C8.82609375 10.77765625 9.15609375 9.45765625 9.49609375 8.09765625 C9.53881475 9.7637753 9.53673207 11.4314851 9.49609375 13.09765625 C8.49609375 14.09765625 8.49609375 14.09765625 6.28125 14.23046875 C5.38277344 14.22789062 4.48429687 14.2253125 3.55859375 14.22265625 C2.66269531 14.22523438 1.76679688 14.2278125 0.84375 14.23046875 C-1.50390625 14.09765625 -1.50390625 14.09765625 -3.50390625 13.09765625 C-3.53077178 11.11856227 -3.55024 9.13936654 -3.56640625 7.16015625 C-3.57800781 6.05800781 -3.58960938 4.95585937 -3.6015625 3.8203125 C-3.46938887 0.13531158 -3.46938887 0.13531158 0 0 Z " fill="#73B2DA" transform="translate(284.50390625,290.90234375)"/>
<path d="M0 0 C0.66 0 1.32 0 2 0 C2.95917494 2.87752483 3.02818032 4.19414984 2.875 7.125 C2.75975003 14.86979793 4.52489803 22.43132201 6 30 C2.21875 29.2578125 2.21875 29.2578125 0.25 26.9375 C-0.1625 26.298125 -0.575 25.65875 -1 25 C0.32 25.33 1.64 25.66 3 26 C2.69147815 24.041036 2.3780582 22.08284287 2.0625 20.125 C1.80146484 18.48917969 1.80146484 18.48917969 1.53515625 16.8203125 C1.14448841 14.06178454 1.14448841 14.06178454 0 12 C-0.07065617 9.95944995 -0.08421976 7.91665743 -0.0625 5.875 C-0.05347656 4.77929688 -0.04445312 3.68359375 -0.03515625 2.5546875 C-0.02355469 1.71164063 -0.01195312 0.86859375 0 0 Z " fill="#BAD698" transform="translate(130,188)"/>
<path d="M0 0 C1.14626322 0.97866338 2.29199788 1.95794587 3.4375 2.9375 C4.07558594 3.48277344 4.71367187 4.02804687 5.37109375 4.58984375 C7.98893281 6.85612648 7.98893281 6.85612648 8.1875 9.4375 C8 12 8 12 6 14 C3.47802734 14.22705078 3.47802734 14.22705078 0.3359375 14.1953125 C-0.78554687 14.18886719 -1.90703125 14.18242187 -3.0625 14.17578125 C-4.238125 14.15902344 -5.41375 14.14226562 -6.625 14.125 C-8.40003906 14.11146484 -8.40003906 14.11146484 -10.2109375 14.09765625 C-13.14082523 14.07402812 -16.0703134 14.04108514 -19 14 C-19 13.67 -19 13.34 -19 13 C-6.625 12.505 -6.625 12.505 6 12 C5.67 10.68 5.34 9.36 5 8 C4.34 7.71125 3.68 7.4225 3 7.125 C2.34 6.75375 1.68 6.3825 1 6 C0.25 2.875 0.25 2.875 0 0 Z " fill="#4D9ACF" transform="translate(252,310)"/>
<path d="M0 0 C-0.33 0.66 -0.66 1.32 -1 2 C-2.07701172 2.13921875 -2.07701172 2.13921875 -3.17578125 2.28125 C-7.10334454 3.28079584 -9.37414622 5.73880977 -12.1875 8.5 C-17.82490145 13.91245072 -17.82490145 13.91245072 -20 15 C-20 13.35 -20 11.7 -20 10 C-18.35 9.67 -16.7 9.34 -15 9 C-15 8.34 -15 7.68 -15 7 C-14.34 7 -13.68 7 -13 7 C-13 5.68 -13 4.36 -13 3 C-12.34 3 -11.68 3 -11 3 C-11 2.34 -11 1.68 -11 1 C-7.32589215 -0.17571451 -3.83070817 -0.07366746 0 0 Z " fill="#2D8AC7" transform="translate(159,249)"/>
<path d="M0 0 C0.9075 0.350625 1.815 0.70125 2.75 1.0625 C5.98006474 1.99424944 6.95065605 1.98014627 10 1 C10.66 1.33 11.32 1.66 12 2 C12.73075648 4.3140622 13.40138258 6.64828869 14 9 C11.5 9.5 11.5 9.5 8 9 C5.01920055 6.61215528 2.44311299 3.93297575 0 1 C0 0.67 0 0.34 0 0 Z " fill="#2286CB" transform="translate(224,314)"/>
<path d="M0 0 C1.65322266 0.01740234 1.65322266 0.01740234 3.33984375 0.03515625 C4.99693359 0.04869141 4.99693359 0.04869141 6.6875 0.0625 C7.54214844 0.07410156 8.39679688 0.08570313 9.27734375 0.09765625 C8.94734375 0.75765625 8.61734375 1.41765625 8.27734375 2.09765625 C4.97734375 2.09765625 1.67734375 2.09765625 -1.72265625 2.09765625 C-1.72265625 5.06765625 -1.72265625 8.03765625 -1.72265625 11.09765625 C1.90734375 11.42765625 5.53734375 11.75765625 9.27734375 12.09765625 C9.27734375 12.42765625 9.27734375 12.75765625 9.27734375 13.09765625 C7.29824977 13.12452178 5.31905404 13.14399 3.33984375 13.16015625 C2.23769531 13.17175781 1.13554687 13.18335938 0 13.1953125 C-2.72265625 13.09765625 -2.72265625 13.09765625 -3.72265625 12.09765625 C-3.82116796 10.26649742 -3.85238254 8.43145692 -3.84765625 6.59765625 C-3.85023438 5.59734375 -3.8528125 4.59703125 -3.85546875 3.56640625 C-3.66839177 0.08897525 -3.50637665 0.12576674 0 0 Z " fill="#5DA3D4" transform="translate(284.72265625,274.90234375)"/>
<path d="M0 0 C0.33 0.66 0.66 1.32 1 2 C-0.25 4.625 -0.25 4.625 -2 7 C-2.99 7 -3.98 7 -5 7 C-5 8.65 -5 10.3 -5 12 C-6.65 12 -8.3 12 -10 12 C-9.67 13.65 -9.34 15.3 -9 17 C-9.99 17 -10.98 17 -12 17 C-12.33 16.34 -12.66 15.68 -13 15 C-13.66 14.67 -14.32 14.34 -15 14 C-10.05 9.38 -5.1 4.76 0 0 Z " fill="#3795CE" transform="translate(149,222)"/>
<path d="M0 0 C0 1.33333333 0 2.66666667 0 4 C0.99 3.67 1.98 3.34 3 3 C3.33 3.33 3.66 3.66 4 4 C4.66 3.34 5.32 2.68 6 2 C5.6875 3.9375 5.6875 3.9375 5 6 C4.01 6.33 3.02 6.66 2 7 C0.62804426 8.29355827 -0.71182656 9.62298702 -2 11 C-2.99 10.01 -3.98 9.02 -5 8 C-6.98 8.99 -6.98 8.99 -9 10 C-8.06409496 8.8944811 -7.12620142 7.79064547 -6.1875 6.6875 C-5.66542969 6.07261719 -5.14335938 5.45773438 -4.60546875 4.82421875 C-3.12827531 3.14575321 -1.59960869 1.56117966 0 0 Z " fill="#288ED4" transform="translate(121,249)"/>
<path d="M0 0 C6.18027138 -0.33108597 10.34632824 0.61888928 16 3 C17.0725 3.350625 18.145 3.70125 19.25 4.0625 C21.63944622 4.87708394 23.78177723 5.80557236 26 7 C21.31385561 8.50497329 17.91807252 7.2378681 13.5 5.5625 C9.28052862 3.9875092 5.57826267 2.6390216 1 3 C0.67 2.01 0.34 1.02 0 0 Z " fill="#ABCE7D" transform="translate(80,205)"/>
<path d="M0 0 C0.66 0.33 1.32 0.66 2 1 C0.2892257 2.7107743 -1.4267333 4.40234854 -3.1875 6.0625 C-5.22771904 7.80123661 -5.22771904 7.80123661 -5 10 C-8.83887763 11.48320272 -11.06204091 12.22419163 -15 11 C-10.29522805 6.64961347 -5.80351626 2.78568781 0 0 Z " fill="#A2CA6F" transform="translate(411,278)"/>
<path d="M0 0 C10.15176262 -0.32476018 19.21309195 -0.16801648 29 3 C28.25 8.75 28.25 8.75 26 11 C26 8.69 26 6.38 26 4 C20.56820223 2.99845589 15.11791276 2.46641813 9.625 1.9375 C8.69816406 1.84662109 7.77132813 1.75574219 6.81640625 1.66210938 C4.54444096 1.43959731 2.27231134 1.21894501 0 1 C0 0.67 0 0.34 0 0 Z " fill="#BBD899" transform="translate(428,273)"/>
<path d="M0 0 C0.99 0.33 1.98 0.66 3 1 C-0.63 4.63 -4.26 8.26 -8 12 C-9.32 10.35 -10.64 8.7 -12 7 C-11.34 7 -10.68 7 -10 7 C-10 6.34 -10 5.68 -10 5 C-8.35 5 -6.7 5 -5 5 C-5 4.34 -5 3.68 -5 3 C-3.35 2.67 -1.7 2.34 0 2 C0 1.34 0 0.68 0 0 Z " fill="#3693D1" transform="translate(270,253)"/>
<path d="M0 0 C-0.72518677 3.7709712 -1.79774679 6.83426101 -4 10 C-6.94923493 11.11054672 -9.87889102 11.62049409 -13 12 C-2.93659942 0 -2.93659942 0 0 0 Z " fill="#2487CB" transform="translate(90,281)"/>
<path d="M0 0 C0.66 1.98 1.32 3.96 2 6 C1.34 6 0.68 6 0 6 C0 5.34 0 4.68 0 4 C-0.66 4 -1.32 4 -2 4 C-2.33 4.66 -2.66 5.32 -3 6 C-3.61875 6.103125 -4.2375 6.20625 -4.875 6.3125 C-7.92700876 7.2999146 -8.44440401 9.29461567 -10 12 C-10.99 12.33 -11.98 12.66 -13 13 C-11.56179563 7.72658399 -7.9961885 4.50608991 -4 1 C-2 0 -2 0 0 0 Z " fill="#A6C977" transform="translate(386,257)"/>
<path d="M0 0 C7.48291572 6.15034169 7.48291572 6.15034169 10 10 C8.576875 9.9690625 8.576875 9.9690625 7.125 9.9375 C4.09333717 9.77448174 4.09333717 9.77448174 2 11 C2 8.69 2 6.38 2 4 C0.68 3.67 -0.64 3.34 -2 3 C-1 1 -1 1 0 0 Z " fill="#3F99D0" transform="translate(297,234)"/>
<path d="M0 0 C0 0.66 0 1.32 0 2 C-1.6796875 3.18359375 -1.6796875 3.18359375 -3.875 4.4375 C-6.91130355 6.17330794 -7.99102668 6.98654002 -10 10 C-10 9.34 -10 8.68 -10 8 C-11.65 8.33 -13.3 8.66 -15 9 C-15 8.01 -15 7.02 -15 6 C-12.87717331 4.99539469 -10.75166979 3.99644398 -8.625 3 C-7.44164062 2.443125 -6.25828125 1.88625 -5.0390625 1.3125 C-2 0 -2 0 0 0 Z " fill="#A3CA74" transform="translate(409,306)"/>
<path d="M0 0 C0.33 0 0.66 0 1 0 C1.07654536 4.51617599 1.10228696 8.59085217 0 13 C1.32 13.33 2.64 13.66 4 14 C2.37660195 15.70884005 0.70680947 17.37446717 -1 19 C-1.66 19 -2.32 19 -3 19 C-2.27637073 12.60794144 -1.19656638 6.31972924 0 0 Z " fill="#AED084" transform="translate(381,283)"/>
<path d="M0 0 C1.32 0 2.64 0 4 0 C4 0.99 4 1.98 4 3 C4.99 3.33 5.98 3.66 7 4 C7.6875 6.0625 7.6875 6.0625 8 8 C9.32 8 10.64 8 12 8 C12 9.65 12 11.3 12 13 C7.82556637 9.49925018 3.6854506 6.02049157 0 2 C0 1.34 0 0.68 0 0 Z " fill="#56A3D0" transform="translate(168,259)"/>
<path d="M0 0 C2.96865509 2.54456151 4.3619751 5.48994665 6 9 C3.39517051 9.94721072 1.69325299 10.30222393 -0.890625 9.17578125 C-2.62582873 8.17063275 -4.31640423 7.0893855 -6 6 C-2.98968256 5.06576355 -2.13349732 4.95550089 1 6 C0.67 4.02 0.34 2.04 0 0 Z " fill="#AACD80" transform="translate(124,215)"/>
<path d="M0 0 C0.66 0 1.32 0 2 0 C4.84532517 8.18030985 4.84532517 15.81969015 2 24 C1.67 24 1.34 24 1 24 C1.00523682 23.41508789 1.01047363 22.83017578 1.01586914 22.22753906 C1.03670158 19.56837037 1.04968007 16.90921889 1.0625 14.25 C1.07087891 13.32960937 1.07925781 12.40921875 1.08789062 11.4609375 C1.09111328 10.57148438 1.09433594 9.68203125 1.09765625 8.765625 C1.10289307 7.94868164 1.10812988 7.13173828 1.11352539 6.29003906 C1.00299021 4.06031865 0.62055567 2.13866245 0 0 Z " fill="#B3D38B" transform="translate(141,189)"/>
<path d="M0 0 C0.59296875 0.22558594 1.1859375 0.45117188 1.796875 0.68359375 C-0.203125 3.68359375 -0.203125 3.68359375 -2.203125 4.68359375 C-2.85525792 6.7082263 -2.85525792 6.7082263 -3.203125 8.68359375 C-4.523125 8.68359375 -5.843125 8.68359375 -7.203125 8.68359375 C-7.533125 7.69359375 -7.863125 6.70359375 -8.203125 5.68359375 C-7.30284912 4.64827649 -6.38219465 3.6306521 -5.453125 2.62109375 C-4.68742187 1.76837891 -4.68742187 1.76837891 -3.90625 0.8984375 C-2.203125 -0.31640625 -2.203125 -0.31640625 0 0 Z " fill="#047FD4" transform="translate(122.203125,274.31640625)"/>
<path d="M0 0 C2.31 0.33 4.62 0.66 7 1 C7.33 2.32 7.66 3.64 8 5 C7.34 5 6.68 5 6 5 C6 5.66 6 6.32 6 7 C4.125 6.6875 4.125 6.6875 2 6 C0 3 0 3 0 0 Z " fill="#037FD4" transform="translate(162,231)"/>
<path d="M0 0 C4.06498881 1.37184347 6.67396561 3.22068459 9.8125 6.125 C10.99779297 7.21167969 10.99779297 7.21167969 12.20703125 8.3203125 C12.79871094 8.87460938 13.39039062 9.42890625 14 10 C13.01 10.66 12.02 11.32 11 12 C10.34 11.34 9.68 10.68 9 10 C9 9.01 9 8.02 9 7 C8.443125 6.9175 7.88625 6.835 7.3125 6.75 C4.26322081 5.76104459 2.34810037 4.15242534 0 2 C0 1.34 0 0.68 0 0 Z " fill="#AACE79" transform="translate(104,196)"/>
<path d="M0 0 C0.66 0 1.32 0 2 0 C2 2.31 2 4.62 2 7 C3.32 7.66 4.64 8.32 6 9 C2.43827265 9 1.63465243 8.25329283 -1.125 6.125 C-1.82882813 5.59132812 -2.53265625 5.05765625 -3.2578125 4.5078125 C-5 3 -5 3 -6 1 C-3.03 1.495 -3.03 1.495 0 2 C0 1.34 0 0.68 0 0 Z " fill="#A7CD78" transform="translate(78,218)"/>
<path d="M0 0 C2.64 0 5.28 0 8 0 C8.14285714 7.42857143 8.14285714 7.42857143 7 11 C6.01 11 5.02 11 4 11 C4.165 10.236875 4.33 9.47375 4.5 8.6875 C5.09145396 5.96403764 5.09145396 5.96403764 5 3 C5.33 2.34 5.66 1.68 6 1 C4.02 1 2.04 1 0 1 C0 0.67 0 0.34 0 0 Z " fill="#137CC3" transform="translate(286,292)"/>
<path d="M0 0 C0.33 0 0.66 0 1 0 C1 1.65 1 3.3 1 5 C2.32 5.33 3.64 5.66 5 6 C1.55930376 8.29379749 0.27709699 9 -4 9 C-2.94124926 5.59687262 -1.99097846 2.98646769 0 0 Z " fill="#ABCF81" transform="translate(388,300)"/>
<path d="M0 0 C3.3125 0.1875 3.3125 0.1875 7 1 C8.75 3.3125 8.75 3.3125 10 6 C10.98244845 7.34631825 11.97676564 8.68441297 13 10 C10 10 10 10 8.02734375 8.3203125 C6.99287109 7.23363281 6.99287109 7.23363281 5.9375 6.125 C5.24527344 5.40570313 4.55304688 4.68640625 3.83984375 3.9453125 C3.23269531 3.30335938 2.62554687 2.66140625 2 2 C1.34 1.34 0.68 0.68 0 0 Z " fill="#3890C7" transform="translate(180,272)"/>
<path d="M0 0 C0.99 0.33 1.98 0.66 3 1 C3 1.66 3 2.32 3 3 C3.66 3.33 4.32 3.66 5 4 C1.93466836 5.53266582 -1.26754272 5.10276471 -4.625 5.0625 C-5.33140625 5.05798828 -6.0378125 5.05347656 -6.765625 5.04882812 C-8.51045275 5.03703875 -10.255237 5.01910324 -12 5 C-12 4.67 -12 4.34 -12 4 C-8.7 4 -5.4 4 -2 4 C-1.34 2.68 -0.68 1.36 0 0 Z " fill="#0B7CC8" transform="translate(253,318)"/>
<path d="M0 0 C-1.24372189 0.98712878 -2.49527218 1.96439905 -3.75 2.9375 C-4.44609375 3.48277344 -5.1421875 4.02804687 -5.859375 4.58984375 C-7.96092128 5.97425654 -9.54321799 6.56286987 -12 7 C-12 5.68 -12 4.36 -12 3 C-9.525 3.495 -9.525 3.495 -7 4 C-6.8453125 3.0409375 -6.8453125 3.0409375 -6.6875 2.0625 C-6.460625 1.381875 -6.23375 0.70125 -6 0 C-3 -1 -3 -1 0 0 Z " fill="#A7CB7A" transform="translate(439,306)"/>
<path d="M0 0 C3.91402949 1.26941497 5.79072873 2.51167694 8 6 C4.89448334 6 3.64738916 5.4606285 1 4 C0.67 4.99 0.34 5.98 0 7 C-0.99 7 -1.98 7 -3 7 C-3 6.01 -3 5.02 -3 4 C-2.34 3.67 -1.68 3.34 -1 3 C-0.67 2.01 -0.34 1.02 0 0 Z " fill="#2789C9" transform="translate(244,304)"/>
<path d="M0 0 C-2.64341928 1.76227952 -5.23077235 3.19871008 -8.0625 4.625 C-8.94035156 5.07101562 -9.81820313 5.51703125 -10.72265625 5.9765625 C-13 7 -13 7 -15 7 C-14.67 6.01 -14.34 5.02 -14 4 C-13.01 4 -12.02 4 -11 4 C-11 3.34 -11 2.68 -11 2 C-7.17679443 0.57741188 -4.08718695 -0.24042276 0 0 Z " fill="#A7CB7B" transform="translate(408,298)"/>
<path d="M0 0 C1.12894876 0.93274109 2.25300876 1.87140122 3.375 2.8125 C4.00148438 3.33457031 4.62796875 3.85664063 5.2734375 4.39453125 C7 6 7 6 9 9 C8.34 9.66 7.68 10.32 7 11 C7 10.01 7 9.02 7 8 C4.69 8 2.38 8 0 8 C0 7.34 0 6.68 0 6 C0.66 6 1.32 6 2 6 C1.34 4.02 0.68 2.04 0 0 Z " fill="#489ED3" transform="translate(338,274)"/>
<path d="M0 0 C-1.375 1.5 -1.375 1.5 -3 3 C-3.66 3 -4.32 3 -5 3 C-5 4.98 -5 6.96 -5 9 C-7.76223278 6.23776722 -7.57856291 3.79293383 -8 0 C-4.94736336 -0.98120464 -3.05263664 -0.98120464 0 0 Z " fill="#AACD81" transform="translate(65,192)"/>
<path d="M0 0 C2.56616632 3.84924948 2.55097676 6.4349304 3 11 C2.01 11.495 2.01 11.495 1 12 C0.34444881 14.52733235 0.34444881 14.52733235 0 17 C-0.33 17 -0.66 17 -1 17 C-1.02699725 14.72923158 -1.04639453 12.45837179 -1.0625 10.1875 C-1.07990234 8.29064453 -1.07990234 8.29064453 -1.09765625 6.35546875 C-1 3 -1 3 0 0 Z " fill="#99C263" transform="translate(124,181)"/>
<path d="M0 0 C1.14926266 0.95421808 2.29430541 1.91352045 3.4375 2.875 C4.07558594 3.40867187 4.71367187 3.94234375 5.37109375 4.4921875 C7 6 7 6 8 8 C5.36 7.67 2.72 7.34 0 7 C0 4.69 0 2.38 0 0 Z " fill="#52A3D1" transform="translate(194,253)"/>
<path d="M0 0 C-0.66 2.31 -1.32 4.62 -2 7 C-2.99 7 -3.98 7 -5 7 C-5 6.01 -5 5.02 -5 4 C-6.32 4.33 -7.64 4.66 -9 5 C-6.45523312 2.20075644 -3.92372883 0 0 0 Z " fill="#A6CE74" transform="translate(418,301)"/>
<path d="M0 0 C1 2 1 2 0.3125 5.0625 C-1 8 -1 8 -3 9 C-3.66 9 -4.32 9 -5 9 C-5.66 8.34 -6.32 7.68 -7 7 C-4.69 4.69 -2.38 2.38 0 0 Z " fill="#499ED1" transform="translate(229,263)"/>
<path d="M0 0 C4.30764815 1.56641751 8.06171464 3.68336156 12 6 C10.375 6.6875 10.375 6.6875 8 7 C4.75 5.5625 4.75 5.5625 2 4 C2 3.34 2 2.68 2 2 C1.01 2.33 0.02 2.66 -1 3 C-0.67 2.01 -0.34 1.02 0 0 Z " fill="#ADCF80" transform="translate(94,216)"/>
<path d="M0 0 C-0.99 0 -1.98 0 -3 0 C-3 0.66 -3 1.32 -3 2 C-5.8125 3.5625 -5.8125 3.5625 -9 5 C-9.99 4.67 -10.98 4.34 -12 4 C-12.33 3.34 -12.66 2.68 -13 2 C-11.5882217 1.46605821 -10.17029756 0.94834896 -8.75 0.4375 C-7.96109375 0.14746094 -7.1721875 -0.14257812 -6.359375 -0.44140625 C-3.80896548 -1.04522837 -2.44677771 -0.8473932 0 0 Z " fill="#ACD07E" transform="translate(426,275)"/>
<path d="M0 0 C6.625 -0.25 6.625 -0.25 10 2 C10 2.66 10 3.32 10 4 C10.99 4.33 11.98 4.66 13 5 C8.02693484 4.50269348 4.36200187 3.44697666 0 1 C0 0.67 0 0.34 0 0 Z " fill="#ABCD7D" transform="translate(84,228)"/>
<path d="M0 0 C5.29158974 1.40071493 7.77478044 4.85487245 11 9 C8 9 8 9 5.95703125 7.28515625 C5.24933594 6.55167969 4.54164063 5.81820313 3.8125 5.0625 C3.09707031 4.33160156 2.38164062 3.60070312 1.64453125 2.84765625 C0 1 0 1 0 0 Z " fill="#4698D0" transform="translate(325,293)"/>
<path d="M0 0 C0 3.15081975 -0.27898465 4.41847698 -2 7 C-4.125 7.75 -4.125 7.75 -6 8 C-6 8.66 -6 9.32 -6 10 C-7.65 10.33 -9.3 10.66 -11 11 C-7.33333333 7.33333333 -3.66666667 3.66666667 0 0 Z " fill="#4B98CB" transform="translate(111,259)"/>
<path d="M0 0 C3.50683673 0.78903826 4.54087317 2.66008988 6.5 5.5625 C5.51 5.5625 4.52 5.5625 3.5 5.5625 C3.17 4.9025 2.84 4.2425 2.5 3.5625 C-1.955 4.0575 -1.955 4.0575 -6.5 4.5625 C-4.42585277 2.10425143 -3.18484266 0.7165896 0 0 Z " fill="#569ECC" transform="translate(278.5,217.4375)"/>
<path d="M0 0 C0.66 0 1.32 0 2 0 C3.10370043 3.3111013 2.92673641 5.24748949 2.5625 8.6875 C2.40974609 10.17830078 2.40974609 10.17830078 2.25390625 11.69921875 C2.12822266 12.83810547 2.12822266 12.83810547 2 14 C0 12 0 12 -0.1953125 9.1796875 C-0.17210937 8.08914062 -0.14890625 6.99859375 -0.125 5.875 C-0.10695312 4.77929688 -0.08890625 3.68359375 -0.0703125 2.5546875 C-0.04710937 1.71164063 -0.02390625 0.86859375 0 0 Z " fill="#AFD181" transform="translate(130,188)"/>
<path d="M0 0 C0.66 0.66 1.32 1.32 2 2 C1.625 4.625 1.625 4.625 1 7 C0.01 7 -0.98 7 -2 7 C-2.66 5.35 -3.32 3.7 -4 2 C-2.68 1.34 -1.36 0.68 0 0 Z " fill="#057ECB" transform="translate(251,310)"/>
<path d="M0 0 C5.75 1.75 5.75 1.75 8 4 C7.360625 4.12375 6.72125 4.2475 6.0625 4.375 C5.0415625 4.684375 5.0415625 4.684375 4 5 C3.67 5.66 3.34 6.32 3 7 C0 3.375 0 3.375 0 0 Z " fill="#9FC76B" transform="translate(108,224)"/>
<path d="M0 0 C3.5 0.9375 3.5 0.9375 5.4375 3 C5.788125 3.639375 6.13875 4.27875 6.5 4.9375 C5.18 4.9375 3.86 4.9375 2.5 4.9375 C2.17 4.2775 1.84 3.6175 1.5 2.9375 C0.736875 2.9375 -0.02625 2.9375 -0.8125 2.9375 C-2.70833333 2.9375 -4.60416667 2.9375 -6.5 2.9375 C-4.48884774 -0.02007686 -3.67399752 -0.0656071 0 0 Z " fill="#5EA7D2" transform="translate(156.5,218.0625)"/>
<path d="M0 0 C1.9375 0.75 1.9375 0.75 4 2 C4.75 4.125 4.75 4.125 5 6 C2.69 5.67 0.38 5.34 -2 5 C-1.34 3.35 -0.68 1.7 0 0 Z " fill="#89C247" transform="translate(120,215)"/>
<path d="M0 0 C0.66 0.33 1.32 0.66 2 1 C0.25 3.5 0.25 3.5 -2 6 C-3.32 6 -4.64 6 -6 6 C-6.33 6.66 -6.66 7.32 -7 8 C-7.99 7.67 -8.98 7.34 -10 7 C-6.7 4.69 -3.4 2.38 0 0 Z " fill="#B3D48A" transform="translate(428,293)"/>
<path d="M0 0 C0.66 0.33 1.32 0.66 2 1 C1.01 2.485 1.01 2.485 0 4 C-0.66 4 -1.32 4 -2 4 C-2.66 5.32 -3.32 6.64 -4 8 C-5.32 7.67 -6.64 7.34 -8 7 C-5.36 4.69 -2.72 2.38 0 0 Z " fill="#B2D589" transform="translate(404,282)"/>
<path d="M0 0 C1.65 0 3.3 0 5 0 C2.03 3.96 2.03 3.96 -1 8 C-1.66 7.67 -2.32 7.34 -3 7 C-3 6.34 -3 5.68 -3 5 C-2.34 5 -1.68 5 -1 5 C-0.67 3.35 -0.34 1.7 0 0 Z " fill="#3A90CC" transform="translate(237,283)"/>
<path d="M0 0 C2.64752004 2.57784846 4.94432065 4.91648098 7 8 C5.35 8 3.7 8 2 8 C0.23537317 4.91190305 0 3.76687864 0 0 Z " fill="#52A7D4" transform="translate(235,292)"/>
<path d="M0 0 C0.33 0 0.66 0 1 0 C1 3.63 1 7.26 1 11 C-0.98 11 -2.96 11 -5 11 C-5 10.34 -5 9.68 -5 9 C-4.0409375 8.7215625 -4.0409375 8.7215625 -3.0625 8.4375 C-0.57873787 7.05753944 -0.57873787 7.05753944 -0.25 3.375 C-0.1675 2.26125 -0.085 1.1475 0 0 Z " fill="#167BBD" transform="translate(293,276)"/>
<path d="M0 0 C-0.33 0.66 -0.66 1.32 -1 2 C-2.66128463 2.35919668 -4.32900023 2.68911632 -6 3 C-8.23408113 3.99083967 -8.23408113 3.99083967 -10 5 C-10.33 3.68 -10.66 2.36 -11 1 C-7.32589215 -0.17571451 -3.83070817 -0.07366746 0 0 Z " fill="#4FA3D5" transform="translate(159,249)"/>
<path d="M0 0 C2.97 0.99 5.94 1.98 9 3 C8.67 3.66 8.34 4.32 8 5 C5.69 4.67 3.38 4.34 1 4 C0.67 2.68 0.34 1.36 0 0 Z " fill="#A6CC78" transform="translate(95,192)"/>
<path d="M0 0 C0.66 0 1.32 0 2 0 C1.34 4.29 0.68 8.58 0 13 C-0.66 12.34 -1.32 11.68 -2 11 C-1.6875 8.1875 -1.6875 8.1875 -1 5 C-0.814375 4.05125 -0.62875 3.1025 -0.4375 2.125 C-0.293125 1.42375 -0.14875 0.7225 0 0 Z " fill="#B0CF85" transform="translate(376,283)"/>
<path d="M0 0 C0.33 0.99 0.66 1.98 1 3 C0.071875 2.95875 -0.85625 2.9175 -1.8125 2.875 C-5.15809719 2.72863661 -5.15809719 2.72863661 -8 5 C-8.66 4.34 -9.32 3.68 -10 3 C-6.48812804 0.59185923 -4.27343092 -0.36629408 0 0 Z " fill="#4497CE" transform="translate(281,248)"/>
<path d="M0 0 C0.99 0 1.98 0 3 0 C2.67 1.32 2.34 2.64 2 4 C1.34 4 0.68 4 0 4 C0 4.66 0 5.32 0 6 C-1.32 6.33 -2.64 6.66 -4 7 C-2.79618552 4.50638429 -1.54571278 2.31856917 0 0 Z " fill="#1980C5" transform="translate(66,303)"/>
<path d="M0 0 C0.33 0.99 0.66 1.98 1 3 C0.01 4.485 0.01 4.485 -1 6 C-1.66 6 -2.32 6 -3 6 C-3.33 7.32 -3.66 8.64 -4 10 C-4.66 10 -5.32 10 -6 10 C-4.6302836 6.00499382 -2.74277578 3.19990508 0 0 Z " fill="#B9D593" transform="translate(395,290)"/>
<path d="M0 0 C-0.125 1.75 -0.125 1.75 -1 4 C-4.0625 6.25 -4.0625 6.25 -7 8 C-7.66 7.67 -8.32 7.34 -9 7 C-7.88121617 5.82737096 -6.75476949 4.66204862 -5.625 3.5 C-4.68527344 2.52546875 -4.68527344 2.52546875 -3.7265625 1.53125 C-2 0 -2 0 0 0 Z " fill="#55A3D4" transform="translate(90,281)"/>
<path d="M0 0 C0.99 0.66 1.98 1.32 3 2 C0.03 4.475 0.03 4.475 -3 7 C-3.33 5.35 -3.66 3.7 -4 2 C-3.01 2 -2.02 2 -1 2 C-0.67 1.34 -0.34 0.68 0 0 Z " fill="#53A4D3" transform="translate(253,269)"/>
<path d="M0 0 C2.92879371 0.62759865 5.36095629 1.58622659 8 3 C7.67 3.66 7.34 4.32 7 5 C7.66 5.33 8.32 5.66 9 6 C4.58763974 6 3.21615077 3.9302707 0 1 C0 0.67 0 0.34 0 0 Z " fill="#4C9FD1" transform="translate(214,305)"/>
<path d="M0 0 C-1.49097658 3.7952131 -3.75700849 5.61042731 -7 8 C-7 6.68 -7 5.36 -7 4 C-6.01 4 -5.02 4 -4 4 C-4 3.01 -4 2.02 -4 1 C-2 0 -2 0 0 0 Z " fill="#4499D1" transform="translate(137,265)"/>
<path d="M0 0 C2.31 0.66 4.62 1.32 7 2 C7 3.65 7 5.3 7 7 C5.83040013 6.02433888 4.66438823 5.044375 3.5 4.0625 C2.8503125 3.51722656 2.200625 2.97195312 1.53125 2.41015625 C1.0259375 1.94480469 0.520625 1.47945312 0 1 C0 0.67 0 0.34 0 0 Z " fill="#4C9CCE" transform="translate(159,251)"/>
<path d="M0 0 C1.17539996 0.92652701 2.34010577 1.86663387 3.5 2.8125 C4.1496875 3.33457031 4.799375 3.85664063 5.46875 4.39453125 C7 6 7 6 7 9 C3.83884224 7.63016497 3.0072908 7.0109362 1 4 C0.375 1.8125 0.375 1.8125 0 0 Z " fill="#5AA6D4" transform="translate(167,227)"/>
<path d="M0 0 C0.33 0.66 0.66 1.32 1 2 C-0.25535985 5.76607955 -1.52883585 6.26441793 -5 8 C-5.99 8 -6.98 8 -8 8 C-5.36 5.36 -2.72 2.72 0 0 Z " fill="#7DBEDD" transform="translate(99,270)"/>
<path d="M0 0 C1.32 0 2.64 0 4 0 C3.67 1.65 3.34 3.3 3 5 C0.525 4.01 0.525 4.01 -2 3 C-1.34 2.01 -0.68 1.02 0 0 Z " fill="#1C8AD4" transform="translate(126,270)"/>
<path d="M0 0 C0 3.62453269 -0.92469613 5.07920195 -3 8 C-3.99 8.33 -4.98 8.66 -6 9 C-4.68775452 5.06326356 -3.08089673 2.77280706 0 0 Z " fill="#ACCD83" transform="translate(379,261)"/>
<path d="M0 0 C2 3 2 3 1.625 5.1875 C1.41875 5.785625 1.2125 6.38375 1 7 C-0.32 6.67 -1.64 6.34 -3 6 C-2.625 3.5625 -2.625 3.5625 -2 1 C-1.34 0.67 -0.68 0.34 0 0 Z " fill="#057DC9" transform="translate(309,247)"/>
<path d="M0 0 C0.33 0.66 0.66 1.32 1 2 C0.67 2.99 0.34 3.98 0 5 C-0.66 5 -1.32 5 -2 5 C-2 5.66 -2 6.32 -2 7 C-3.32 6.67 -4.64 6.34 -6 6 C-4.02 4.02 -2.04 2.04 0 0 Z " fill="#4899D1" transform="translate(253,240)"/>
<path d="M0 0 C0.33 0.66 0.66 1.32 1 2 C-0.25 4.625 -0.25 4.625 -2 7 C-2.99 7 -3.98 7 -5 7 C-3.70700306 4.11562221 -2.34058637 2.12780579 0 0 Z " fill="#398DC6" transform="translate(149,222)"/>
<path d="M0 0 C2.64 0 5.28 0 8 0 C8.33 0.66 8.66 1.32 9 2 C6.36 2.33 3.72 2.66 1 3 C0.67 2.01 0.34 1.02 0 0 Z " fill="#A5CD73" transform="translate(80,205)"/>
<path d="M0 0 C0 0.66 0 1.32 0 2 C-0.66 2 -1.32 2 -2 2 C-2 2.66 -2 3.32 -2 4 C-1.01 4.33 -0.02 4.66 1 5 C-0.98 5 -2.96 5 -5 5 C-4.625 3.0625 -4.625 3.0625 -4 1 C-2 0 -2 0 0 0 Z " fill="#AFD18C" transform="translate(394,313)"/>
<path d="M0 0 C1.2065625 0.0309375 1.2065625 0.0309375 2.4375 0.0625 C0.6875 3.9375 0.6875 3.9375 -1.5625 5.0625 C-2.2225 3.7425 -2.8825 2.4225 -3.5625 1.0625 C-2.5625 0.0625 -2.5625 0.0625 0 0 Z " fill="#4399CE" transform="translate(83.5625,314.9375)"/>
<path d="M0 0 C0.103125 0.639375 0.20625 1.27875 0.3125 1.9375 C0.539375 2.618125 0.76625 3.29875 1 4 C1.99 4.33 2.98 4.66 4 5 C2.625 6.5 2.625 6.5 1 8 C0.34 8 -0.32 8 -1 8 C-0.67 5.36 -0.34 2.72 0 0 Z " fill="#BED69E" transform="translate(379,294)"/>
<path d="M0 0 C1.98 0.66 3.96 1.32 6 2 C6.33 3.65 6.66 5.3 7 7 C5.83040013 6.02433888 4.66438823 5.044375 3.5 4.0625 C2.8503125 3.51722656 2.200625 2.97195313 1.53125 2.41015625 C1.0259375 1.94480469 0.520625 1.47945313 0 1 C0 0.67 0 0.34 0 0 Z " fill="#5BA9D8" transform="translate(298,267)"/>
<path d="M0 0 C2.31 1.98 4.62 3.96 7 6 C6.34 6.66 5.68 7.32 5 8 C0 2.25 0 2.25 0 0 Z " fill="#489CD3" transform="translate(310,247)"/>
<path d="M0 0 C2.5 2.3125 2.5 2.3125 5 5 C5 5.99 5 6.98 5 8 C4.01 7.67 3.02 7.34 2 7 C0.8125 3.4375 0.8125 3.4375 0 0 Z " fill="#B0D184" transform="translate(118,207)"/>
<path d="M0 0 C2.31 1.98 4.62 3.96 7 6 C6.34 6.66 5.68 7.32 5 8 C4.67 7.34 4.34 6.68 4 6 C3.01 5.67 2.02 5.34 1 5 C0.67 3.35 0.34 1.7 0 0 Z " fill="#75B8D9" transform="translate(368,303)"/>
<path d="M0 0 C1.32 0 2.64 0 4 0 C4 0.66 4 1.32 4 2 C4.66 2 5.32 2 6 2 C5.67 3.32 5.34 4.64 5 6 C3.35 4.02 1.7 2.04 0 0 Z " fill="#67ADD1" transform="translate(208,299)"/>
<path d="M0 0 C-2.6855594 2.6855594 -5.37621328 3.06049974 -9 4 C-8.67 3.01 -8.34 2.02 -8 1 C-5.07175348 0.02391783 -3.04386724 -0.08226668 0 0 Z " fill="#B0D083" transform="translate(417,294)"/>
<path d="M0 0 C-1.65 1.65 -3.3 3.3 -5 5 C-5.66 3.68 -6.32 2.36 -7 1 C-4.53721199 -0.231394 -2.7204945 -0.07159196 0 0 Z " fill="#3590CA" transform="translate(250,276)"/>
<path d="M0 0 C2.97 0.495 2.97 0.495 6 1 C6 2.65 6 4.3 6 6 C3.97945196 4.35830472 1.97956942 2.69088222 0 1 C0 0.67 0 0.34 0 0 Z " fill="#5CADD8" transform="translate(305,274)"/>
<path d="M0 0 C1.98 1.65 3.96 3.3 6 5 C5.01 5.33 4.02 5.66 3 6 C2.01 5.34 1.02 4.68 0 4 C0 2.68 0 1.36 0 0 Z " fill="#66AFD8" transform="translate(332,268)"/>
<path d="M0 0 C5.625 -0.25 5.625 -0.25 9 2 C9 2.66 9 3.32 9 4 C6.03 3.01 3.06 2.02 0 1 C0 0.67 0 0.34 0 0 Z " fill="#AACF7D" transform="translate(103,213)"/>
</svg>
